<svg id="Layer_1" data-name="Layer 1" xmlns="http://www.w3.org/2000/svg" viewBox="0 0 146.6 186.58"><defs><style>.cls-1{fill:#ff6b4f;}.cls-2{fill:#e2236c;}.cls-10,.cls-11,.cls-12,.cls-2,.cls-3,.cls-5,.cls-6,.cls-9{stroke:#000;stroke-miterlimit:10;}.cls-11,.cls-2,.cls-3{stroke-width:0.2px;}.cls-4{fill:#e24305;}.cls-10,.cls-5{fill:none;}.cls-6{fill:aqua;stroke-width:2px;opacity:0.3;}.cls-7{fill:#f7931e;}.cls-8{font-size:60px;fill:#ed1c24;}.cls-13,.cls-8{font-family:MyriadPro-Regular, Myriad Pro;}.cls-10{stroke-width:3px;}.cls-11{fill:#fff;}.cls-12{stroke-width:1.5px;}.cls-13{font-size:33.82px;}</style></defs><path class="cls-1" d="M566.27,739.54c-.11,10.45,6.46,18.94,14.7,18.94s15-8.49,15.13-18.94-6.46-18.95-14.7-18.95S566.39,729.08,566.27,739.54Z" transform="translate(-566.27 -617.18)"/><path class="cls-1" d="M683.05,739.54c-.12,10.45,6.46,18.94,14.69,18.94s15-8.49,15.13-18.94-6.46-18.95-14.69-18.95S683.17,729.08,683.05,739.54Z" transform="translate(-566.27 -617.18)"/><path class="cls-2" d="M582,730.9l-.25-.18a8.68,8.68,0,0,0,.2,17,15.82,15.82,0,0,1,1.46-3.82c.09-.18-.23-.38-.15-.59-.16-1,0-2-.11-3a18.45,18.45,0,0,1,.23-4.49c-.53-.37-.46-.9-.46-1.53l-.27-2.35s-.35-.06-.27-.1c-.17-.12.15-.25,0-.41Z" transform="translate(-566.27 -617.18)"/><path class="cls-2" d="M697.39,747.54l.25.18a8.68,8.68,0,0,0-.2-17,15.82,15.82,0,0,1-1.46,3.82c-.09.18.23.38.15.59.16,1,0,2,.11,3a18,18,0,0,1-.23,4.49c.53.37.46.9.46,1.52l.27,2.36s.35.06.27.09c.17.13-.15.26,0,.42Z" transform="translate(-566.27 -617.18)"/><path class="cls-1" d="M638.77,803.76h0c32.11,0,58.68-25.9,59.05-57.54l.6-52.61c.29-26.08-21.12-47.43-47.59-47.43H630.31c-26.47,0-48.37,21.35-48.67,47.43l-.6,52.61C580.68,777.86,606.66,803.76,638.77,803.76Z" transform="translate(-566.27 -617.18)"/><path class="cls-3" d="M128,56.08h4.13a0,0,0,0,1,0,0v64a0,0,0,0,1,0,0h0A4.13,4.13,0,0,1,128,116V56.08A0,0,0,0,1,128,56.08Z"/><path class="cls-3" d="M15.15,55.52h4.13a0,0,0,0,1,0,0V115.4a4.13,4.13,0,0,1-4.13,4.13h0a0,0,0,0,1,0,0v-64a0,0,0,0,1,0,0Z"/><path class="cls-4" d="M698.07,686.7a337.74,337.74,0,0,0-116,0q-5.33-30.53-10.66-61.07a2.22,2.22,0,0,1,2-2.38,401.31,401.31,0,0,1,133.29,0,2.21,2.21,0,0,1,2,2.38Q703.41,656.17,698.07,686.7Z" transform="translate(-566.27 -617.18)"/><path class="cls-5" d="M698.07,686.7a337.74,337.74,0,0,0-116,0q-5.33-30.53-10.66-61.07a2.22,2.22,0,0,1,2-2.38,401.31,401.31,0,0,1,133.29,0,2.21,2.21,0,0,1,2,2.38Q703.41,656.17,698.07,686.7Z" transform="translate(-566.27 -617.18)"/><path class="cls-6" d="M660.57,740.46h17.82c2.45-.19,4.88-.47,7.34-.77V714H652.25v25.47A41.62,41.62,0,0,0,660.57,740.46Z" transform="translate(-566.27 -617.18)"/><path class="cls-6" d="M593.51,740.28l2.2.67H624a17.19,17.19,0,0,1,2.58-.45v-26H593.1v25.72A3.59,3.59,0,0,1,593.51,740.28Z" transform="translate(-566.27 -617.18)"/><path class="cls-7" d="M635,698.16c2.48-7.62,3.23-13.16,4.59-13.15s2.07,5.53,4.54,13.15c2.41,7.27.91,13.69-4.63,13.82C634.24,711.85,632.59,705.43,635,698.16Z" transform="translate(-566.27 -617.18)"/><text class="cls-8" transform="translate(66.72 92.16)">.</text><path class="cls-9" d="M627.42,711.7H593.48l.18,1.27a3.69,3.69,0,0,1-.45,1.93,3.26,3.26,0,0,1-.26.53l.18.27h34.16A5,5,0,0,1,627.42,711.7Z" transform="translate(-566.27 -617.18)"/><path class="cls-9" d="M686.12,713.8a6.06,6.06,0,0,1,.18-2.1H652.39a6.31,6.31,0,0,1,.34,1.77,4.14,4.14,0,0,1-.2,1.37,4.64,4.64,0,0,1,.51.86h33.31A6.27,6.27,0,0,1,686.12,713.8Z" transform="translate(-566.27 -617.18)"/><path d="M627.65,718a6.44,6.44,0,0,1-1.19,3.24l-.19.43-.1.21a86.89,86.89,0,0,1,25.66-.1,3.57,3.57,0,0,1,.09-2l-.87-1.79A74.66,74.66,0,0,0,627.65,718Z" transform="translate(-566.27 -617.18)"/><path class="cls-5" d="M627.65,718a6.44,6.44,0,0,1-1.19,3.24l-.19.43-.1.21a86.89,86.89,0,0,1,25.66-.1,3.57,3.57,0,0,1,.09-2l-.87-1.79A74.66,74.66,0,0,0,627.65,718Z" transform="translate(-566.27 -617.18)"/><path class="cls-10" d="M626.57,712.78a23.51,23.51,0,0,1-2.78,0,71.6,71.6,0,0,1-23.36.75,4.62,4.62,0,0,1-2.71.45,17.84,17.84,0,0,1-4.19-1.32l-.24-.09-.19,0v27.07a71.71,71.71,0,0,0,33.47,0Z" transform="translate(-566.27 -617.18)"/><path class="cls-10" d="M685.48,712.93a98.8,98.8,0,0,1-15.36,1.62c-5.94.16-12,.2-17.79-1.53v26.2a71.75,71.75,0,0,0,33.48,0V716.05A15.29,15.29,0,0,1,685.48,712.93Z" transform="translate(-566.27 -617.18)"/><path d="M592.77,717.63a1.5,1.5,0,0,0,0-3,1.5,1.5,0,0,0,0,3Z" transform="translate(-566.27 -617.18)"/><path d="M626.58,717.71a1.5,1.5,0,0,0,0-3,1.5,1.5,0,0,0,0,3Z" transform="translate(-566.27 -617.18)"/><path d="M698.39,718.5a6.64,6.64,0,0,1,0-1.09l-13,4.19v3.56l13.74-4.41A6.61,6.61,0,0,1,698.39,718.5Z" transform="translate(-566.27 -617.18)"/><path class="cls-11" d="M672.44,776.47s0-.05,0-.07c-.09-3.06.21-6.11.23-9.17a5.48,5.48,0,0,1,.17-1.32H603.05a4.47,4.47,0,0,1,0,.74c0,.31,0,.63,0,1a7.2,7.2,0,0,1,1,.06c3.16.43,4.75,2.88,5.27,5.79.39,2.26.22,3.9.9,5.61a3.63,3.63,0,0,1,.25,1.2h61.2a5,5,0,0,1,.16-2.3A5.14,5.14,0,0,1,672.44,776.47Z" transform="translate(-566.27 -617.18)"/><path d="M591.89,720.33a9.1,9.1,0,0,1,.26-1.14l-10.79-2.48a5.44,5.44,0,0,1-.45,3.78l11,2.52A9.63,9.63,0,0,1,591.89,720.33Z" transform="translate(-566.27 -617.18)"/><circle class="cls-12" cx="42.8" cy="110.52" r="2.5"/><path class="cls-3" d="M610.19,780.28v.19a4.55,4.55,0,0,1,1.56,2.66c.39,1.74,3.58,3.61,5,4.7,2.65,2,5.09,4.73,8.4,5.18.89.12,1.72,0,2.33.65,3.92-.07,8,.69,12.23.32,18.83-1.62,23.22-3.91,17.42-1.09a1,1,0,0,1,.46,0,5.22,5.22,0,0,1,1.88-1.08c5-1.66,7.66-4.57,9.85-9.32a4.09,4.09,0,0,1,2.23-2v-.17Z" transform="translate(-566.27 -617.18)"/><path class="cls-2" d="M657.68,792.62l.36-.3c-1.43-4.71-8.68-8.3-17.44-8.3-8.92,0-16.28,3.71-17.53,8.55a48.72,48.72,0,0,1,7.86,1.78c.37.11.79-.29,1.21-.18,2.07-.2,4.14,0,6.21-.14a61.47,61.47,0,0,1,9.24.28c.77-.64,1.85-.56,3.14-.56l4.85-.33s.12-.43.19-.33c.25-.21.52.19.84,0Z" transform="translate(-566.27 -617.18)"/><circle class="cls-12" cx="102.8" cy="110.52" r="2.5"/><path class="cls-5" d="M42.33,153.56h64a0,0,0,0,1,0,0v0A23.24,23.24,0,0,1,83.08,176.8H65.57a23.24,23.24,0,0,1-23.24-23.24v0a0,0,0,0,1,0,0Z"/><path class="cls-12" d="M54,134.7h39a16.51,16.51,0,0,1,16.51,16.51v2.11a0,0,0,0,1,0,0h-72a0,0,0,0,1,0,0v-2.11A16.51,16.51,0,0,1,54,134.7Z"/><rect class="cls-3" x="25.41" y="83.68" width="37" height="7.3" rx="3.65"/><rect class="cls-3" x="83.82" y="83.68" width="37" height="7.3" rx="3.65"/><text class="cls-13" transform="translate(106.56 139.83)">.</text></svg>